<?xml version="1.0" standalone="no"?>
<!DOCTYPE svg PUBLIC "-//W3C//DTD SVG 20010904//EN"
 "http://www.w3.org/TR/2001/REC-SVG-20010904/DTD/svg10.dtd">
<svg version="1.0" xmlns="http://www.w3.org/2000/svg"
 width="104.000000pt" height="104.000000pt" viewBox="0 0 104.000000 104.000000"
 preserveAspectRatio="xMidYMid meet">
<metadata>
Created by potrace 1.11, written by Peter Selinger 2001-2013
</metadata>
<g transform="translate(0.000000,104.000000) scale(0.100000,-0.100000)"
fill="#000000" stroke="none">
<path d="M459 837 c-31 -29 -73 -65 -93 -82 -32 -25 -39 -38 -43 -75 -4 -44
-3 -46 48 -89 47 -41 52 -43 62 -26 5 10 24 34 42 53 44 49 61 40 127 -61 3
-6 29 10 61 37 l55 47 -9 42 c-7 30 -20 51 -46 72 -20 17 -61 53 -92 82 l-56
52 -56 -52z"/>
<path d="M486 579 c-91 -108 -94 -239 -7 -312 35 -29 49 -27 88 15 61 65 65
165 10 251 -51 79 -60 84 -91 46z"/>
<path d="M212 579 c-23 -12 -42 -26 -42 -31 0 -5 10 -24 22 -41 12 -16 36 -60
53 -97 33 -68 78 -115 121 -126 14 -4 27 -5 29 -2 2 2 -1 24 -6 48 -10 43 -7
128 6 161 3 10 -5 26 -22 44 -62 61 -103 73 -161 44z"/>
<path d="M725 586 c-16 -7 -44 -27 -61 -45 -30 -31 -30 -32 -20 -87 7 -40 6
-72 -2 -112 -6 -31 -10 -58 -7 -60 2 -2 17 -1 32 3 42 10 108 85 127 143 10
28 30 65 46 83 32 37 31 43 -8 63 -44 22 -75 25 -107 12z"/>
<path d="M125 408 c-16 -4 -41 -16 -54 -26 l-23 -19 36 -22 c20 -12 50 -46 68
-76 37 -63 74 -87 132 -87 43 0 126 34 126 51 0 5 -15 13 -32 17 -48 10 -95
45 -140 106 -43 57 -67 69 -113 56z"/>
<path d="M827 383 c-63 -78 -127 -132 -173 -146 l-47 -14 53 -26 c98 -49 162
-30 224 68 20 30 49 63 66 74 28 17 29 19 13 33 -53 46 -105 50 -136 11z"/>
<path d="M488 219 c-24 -13 -23 -36 3 -79 l21 -34 24 29 c28 36 31 63 7 81
-22 16 -32 17 -55 3z"/>
</g>
</svg>
